<?xml version="1.0" encoding="UTF-8" standalone="no"?>
<!DOCTYPE svg PUBLIC "-//W3C//DTD SVG 1.1//EN"
 "http://www.w3.org/Graphics/SVG/1.1/DTD/svg11.dtd">
<!-- Generated by graphviz version 2.47.0 (20210316.0004)
 -->
<!-- Title: dependencies Pages: 1 -->
<svg width="1142pt" height="360pt"
 viewBox="0.00 0.00 1142.00 360.00" xmlns="http://www.w3.org/2000/svg" xmlns:xlink="http://www.w3.org/1999/xlink">
<g id="graph0" class="graph" transform="scale(1 1) rotate(0) translate(4 356)">
<title>dependencies</title>
<polygon fill="white" stroke="transparent" points="-4,4 -4,-356 1138,-356 1138,4 -4,4"/>
<text text-anchor="start" x="546.01" y="-42.4" font-family="Times-12" font-weight="bold" font-size="14.00">Legend</text>
<polygon fill="#ffffb3" stroke="transparent" points="333,-10 333,-30 353,-30 353,-10 333,-10"/>
<text text-anchor="start" x="356.63" y="-15.4" font-family="Times-12" font-size="14.00"> &#160;Declarations</text>
<polygon fill="#8dd3c7" stroke="transparent" points="446,-10 446,-30 466,-30 466,-10 446,-10"/>
<text text-anchor="start" x="469.73" y="-15.4" font-family="Times-12" font-size="14.00"> &#160;Module</text>
<polygon fill="#80b1d3" stroke="transparent" points="532,-10 532,-30 552,-30 552,-10 532,-10"/>
<text text-anchor="start" x="555.78" y="-15.4" font-family="Times-12" font-size="14.00"> &#160;Bootstrap</text>
<polygon fill="#fdb462" stroke="transparent" points="629,-10 629,-30 649,-30 649,-10 629,-10"/>
<text text-anchor="start" x="652.67" y="-15.4" font-family="Times-12" font-size="14.00"> &#160;Providers</text>
<polygon fill="#fb8072" stroke="transparent" points="725,-10 725,-30 745,-30 745,-10 725,-10"/>
<text text-anchor="start" x="748.73" y="-15.4" font-family="Times-12" font-size="14.00"> &#160;Exports</text>
<g id="clust1" class="cluster">
<title>cluster_AppModule</title>
<polygon fill="none" stroke="black" stroke-dasharray="1,5" points="317,-146 317,-344 739,-344 739,-146 317,-146"/>
</g>
<g id="clust2" class="cluster">
<title>cluster_AppModule_declarations</title>
<polygon fill="none" stroke="black" points="609,-154 609,-206 731,-206 731,-154 609,-154"/>
</g>
<g id="clust4" class="cluster">
<title>cluster_AppModule_imports</title>
<polygon fill="none" stroke="black" points="485,-154 485,-206 601,-206 601,-154 485,-154"/>
</g>
<g id="clust6" class="cluster">
<title>cluster_AppModule_bootstrap</title>
<polygon fill="none" stroke="black" points="481,-284 481,-336 605,-336 605,-284 481,-284"/>
</g>
<g id="clust7" class="cluster">
<title>cluster_AppModule_providers</title>
<polygon fill="none" stroke="black" points="325,-154 325,-206 477,-206 477,-154 325,-154"/>
</g>
<g id="clust8" class="cluster">
<title>cluster_SnotifyModule</title>
<polygon fill="none" stroke="black" stroke-dasharray="1,5" points="8,-70 8,-138 1126,-138 1126,-70 8,-70"/>
</g>
<g id="clust9" class="cluster">
<title>cluster_SnotifyModule_declarations</title>
<polygon fill="none" stroke="black" points="370,-78 370,-130 1118,-130 1118,-78 370,-78"/>
</g>
<g id="clust17" class="cluster">
<title>cluster_SnotifyModule_exports</title>
<polygon fill="none" stroke="black" points="16,-78 16,-130 362,-130 362,-78 16,-78"/>
</g>
<!-- AppComponent -->
<g id="node1" class="node">
<title>AppComponent</title>
<polygon fill="#ffffb3" stroke="black" points="722.94,-198 617.06,-198 617.06,-162 722.94,-162 722.94,-198"/>
<text text-anchor="middle" x="670" y="-175.8" font-family="Times,serif" font-size="14.00">AppComponent</text>
</g>
<!-- AppModule -->
<g id="node2" class="node">
<title>AppModule</title>
<polygon fill="#8dd3c7" stroke="black" points="584.66,-263 581.66,-267 560.66,-267 557.66,-263 501.34,-263 501.34,-227 584.66,-227 584.66,-263"/>
<text text-anchor="middle" x="543" y="-240.8" font-family="Times,serif" font-size="14.00">AppModule</text>
</g>
<!-- AppComponent&#45;&gt;AppModule -->
<g id="edge1" class="edge">
<title>AppComponent&#45;&gt;AppModule</title>
<path fill="none" stroke="black" d="M670,-198.11C670,-217.34 670,-245 670,-245 670,-245 594.94,-245 594.94,-245"/>
<polygon fill="black" stroke="black" points="594.94,-241.5 584.94,-245 594.94,-248.5 594.94,-241.5"/>
</g>
<!-- AppComponent  -->
<g id="node4" class="node">
<title>AppComponent </title>
<polygon fill="#80b1d3" stroke="black" points="597.44,-328 488.56,-328 488.56,-292 597.44,-292 597.44,-328"/>
<text text-anchor="middle" x="543" y="-305.8" font-family="Times,serif" font-size="14.00">AppComponent </text>
</g>
<!-- AppModule&#45;&gt;AppComponent  -->
<g id="edge3" class="edge">
<title>AppModule&#45;&gt;AppComponent </title>
<path fill="none" stroke="black" stroke-dasharray="1,5" d="M543,-263.11C543,-263.11 543,-281.99 543,-281.99"/>
<polygon fill="black" stroke="black" points="539.5,-281.99 543,-291.99 546.5,-281.99 539.5,-281.99"/>
</g>
<!-- SnotifyModule -->
<g id="node3" class="node">
<title>SnotifyModule</title>
<polygon fill="#8dd3c7" stroke="black" points="593.27,-198 590.27,-202 569.27,-202 566.27,-198 492.73,-198 492.73,-162 593.27,-162 593.27,-198"/>
<text text-anchor="middle" x="543" y="-175.8" font-family="Times,serif" font-size="14.00">SnotifyModule</text>
</g>
<!-- SnotifyModule&#45;&gt;AppModule -->
<g id="edge2" class="edge">
<title>SnotifyModule&#45;&gt;AppModule</title>
<path fill="none" stroke="black" d="M543,-198.11C543,-198.11 543,-216.99 543,-216.99"/>
<polygon fill="black" stroke="black" points="539.5,-216.99 543,-226.99 546.5,-216.99 539.5,-216.99"/>
</g>
<!-- KeysPipe  -->
<g id="node12" class="node">
<title>KeysPipe </title>
<polygon fill="#fb8072" stroke="black" points="353.65,-122 280.35,-122 280.35,-86 353.65,-86 353.65,-122"/>
<text text-anchor="middle" x="317" y="-99.8" font-family="Times,serif" font-size="14.00">KeysPipe </text>
</g>
<!-- SnotifyModule&#45;&gt;KeysPipe  -->
<g id="edge11" class="edge">
<title>SnotifyModule&#45;&gt;KeysPipe </title>
<path fill="none" stroke="black" stroke-dasharray="5,2" d="M530.4,-161.68C530.4,-153.21 530.4,-145 530.4,-145 530.4,-145 343.07,-145 343.07,-145 343.07,-145 343.07,-132.1 343.07,-132.1"/>
<polygon fill="black" stroke="black" points="346.57,-132.1 343.07,-122.1 339.57,-132.1 346.57,-132.1"/>
</g>
<!-- SnotifyComponent  -->
<g id="node13" class="node">
<title>SnotifyComponent </title>
<polygon fill="#fb8072" stroke="black" points="262.06,-122 135.94,-122 135.94,-86 262.06,-86 262.06,-122"/>
<text text-anchor="middle" x="199" y="-99.8" font-family="Times,serif" font-size="14.00">SnotifyComponent </text>
</g>
<!-- SnotifyModule&#45;&gt;SnotifyComponent  -->
<g id="edge12" class="edge">
<title>SnotifyModule&#45;&gt;SnotifyComponent </title>
<path fill="none" stroke="black" stroke-dasharray="5,2" d="M517.81,-161.8C517.81,-155.97 517.81,-151 517.81,-151 517.81,-151 199,-151 199,-151 199,-151 199,-132.04 199,-132.04"/>
<polygon fill="black" stroke="black" points="202.5,-132.04 199,-122.04 195.5,-132.04 202.5,-132.04"/>
</g>
<!-- TruncatePipe  -->
<g id="node14" class="node">
<title>TruncatePipe </title>
<polygon fill="#fb8072" stroke="black" points="118.14,-122 23.86,-122 23.86,-86 118.14,-86 118.14,-122"/>
<text text-anchor="middle" x="71" y="-99.8" font-family="Times,serif" font-size="14.00">TruncatePipe </text>
</g>
<!-- SnotifyModule&#45;&gt;TruncatePipe  -->
<g id="edge13" class="edge">
<title>SnotifyModule&#45;&gt;TruncatePipe </title>
<path fill="none" stroke="black" stroke-dasharray="5,2" d="M505.21,-161.88C505.21,-159.03 505.21,-157 505.21,-157 505.21,-157 71,-157 71,-157 71,-157 71,-132.24 71,-132.24"/>
<polygon fill="black" stroke="black" points="74.5,-132.24 71,-122.24 67.5,-132.24 74.5,-132.24"/>
</g>
<!-- SnotifyService -->
<g id="node5" class="node">
<title>SnotifyService</title>
<ellipse fill="#fdb462" stroke="black" cx="401" cy="-180" rx="68.36" ry="18"/>
<text text-anchor="middle" x="401" y="-175.8" font-family="Times,serif" font-size="14.00">SnotifyService</text>
</g>
<!-- SnotifyService&#45;&gt;AppModule -->
<g id="edge4" class="edge">
<title>SnotifyService&#45;&gt;AppModule</title>
<path fill="none" stroke="black" d="M401,-198.11C401,-217.34 401,-245 401,-245 401,-245 491.16,-245 491.16,-245"/>
<polygon fill="black" stroke="black" points="491.16,-248.5 501.16,-245 491.16,-241.5 491.16,-248.5"/>
</g>
<!-- ButtonsComponent -->
<g id="node6" class="node">
<title>ButtonsComponent</title>
<polygon fill="#ffffb3" stroke="black" points="1110.39,-122 985.61,-122 985.61,-86 1110.39,-86 1110.39,-122"/>
<text text-anchor="middle" x="1048" y="-99.8" font-family="Times,serif" font-size="14.00">ButtonsComponent</text>
</g>
<!-- ButtonsComponent&#45;&gt;SnotifyModule -->
<g id="edge5" class="edge">
<title>ButtonsComponent&#45;&gt;SnotifyModule</title>
<path fill="none" stroke="black" d="M1048,-122.42C1048,-131.28 1048,-140 1048,-140 1048,-140 580.79,-140 580.79,-140 580.79,-140 580.79,-151.87 580.79,-151.87"/>
<polygon fill="black" stroke="black" points="577.29,-151.87 580.79,-161.87 584.29,-151.87 577.29,-151.87"/>
</g>
<!-- KeysPipe -->
<g id="node7" class="node">
<title>KeysPipe</title>
<polygon fill="#ffffb3" stroke="black" points="967.65,-122 898.35,-122 898.35,-86 967.65,-86 967.65,-122"/>
<text text-anchor="middle" x="933" y="-99.8" font-family="Times,serif" font-size="14.00">KeysPipe</text>
</g>
<!-- KeysPipe&#45;&gt;SnotifyModule -->
<g id="edge6" class="edge">
<title>KeysPipe&#45;&gt;SnotifyModule</title>
<path fill="none" stroke="black" d="M933,-122.14C933,-128.46 933,-134 933,-134 933,-134 568.19,-134 568.19,-134 568.19,-134 568.19,-151.82 568.19,-151.82"/>
<polygon fill="black" stroke="black" points="564.69,-151.82 568.19,-161.82 571.69,-151.82 564.69,-151.82"/>
</g>
<!-- PromptComponent -->
<g id="node8" class="node">
<title>PromptComponent</title>
<polygon fill="#ffffb3" stroke="black" points="880.06,-122 757.94,-122 757.94,-86 880.06,-86 880.06,-122"/>
<text text-anchor="middle" x="819" y="-99.8" font-family="Times,serif" font-size="14.00">PromptComponent</text>
</g>
<!-- PromptComponent&#45;&gt;SnotifyModule -->
<g id="edge7" class="edge">
<title>PromptComponent&#45;&gt;SnotifyModule</title>
<path fill="none" stroke="black" d="M819,-122.19C819,-125.54 819,-128 819,-128 819,-128 555.6,-128 555.6,-128 555.6,-128 555.6,-151.81 555.6,-151.81"/>
<polygon fill="black" stroke="black" points="552.1,-151.81 555.6,-161.81 559.1,-151.81 552.1,-151.81"/>
</g>
<!-- SnotifyComponent -->
<g id="node9" class="node">
<title>SnotifyComponent</title>
<polygon fill="#ffffb3" stroke="black" points="739.06,-122 616.94,-122 616.94,-86 739.06,-86 739.06,-122"/>
<text text-anchor="middle" x="678" y="-99.8" font-family="Times,serif" font-size="14.00">SnotifyComponent</text>
</g>
<!-- SnotifyComponent&#45;&gt;SnotifyModule -->
<g id="edge8" class="edge">
<title>SnotifyComponent&#45;&gt;SnotifyModule</title>
<path fill="none" stroke="black" d="M616.84,-104C611.44,-104 607.97,-104 607.97,-104 607.97,-104 607.97,-180 607.97,-180 607.97,-180 603.55,-180 603.55,-180"/>
<polygon fill="black" stroke="black" points="603.55,-176.5 593.55,-180 603.55,-183.5 603.55,-176.5"/>
</g>
<!-- ToastComponent -->
<g id="node10" class="node">
<title>ToastComponent</title>
<polygon fill="#ffffb3" stroke="black" points="599.44,-122 486.56,-122 486.56,-86 599.44,-86 599.44,-122"/>
<text text-anchor="middle" x="543" y="-99.8" font-family="Times,serif" font-size="14.00">ToastComponent</text>
</g>
<!-- ToastComponent&#45;&gt;SnotifyModule -->
<g id="edge9" class="edge">
<title>ToastComponent&#45;&gt;SnotifyModule</title>
<path fill="none" stroke="black" d="M543,-122.01C543,-122.01 543,-151.85 543,-151.85"/>
<polygon fill="black" stroke="black" points="539.5,-151.85 543,-161.85 546.5,-151.85 539.5,-151.85"/>
</g>
<!-- TruncatePipe -->
<g id="node11" class="node">
<title>TruncatePipe</title>
<polygon fill="#ffffb3" stroke="black" points="468.14,-122 377.86,-122 377.86,-86 468.14,-86 468.14,-122"/>
<text text-anchor="middle" x="423" y="-99.8" font-family="Times,serif" font-size="14.00">TruncatePipe</text>
</g>
<!-- TruncatePipe&#45;&gt;SnotifyModule -->
<g id="edge10" class="edge">
<title>TruncatePipe&#45;&gt;SnotifyModule</title>
<path fill="none" stroke="black" d="M468.25,-104C474.1,-104 478.11,-104 478.11,-104 478.11,-104 478.11,-180 478.11,-180 478.11,-180 482.51,-180 482.51,-180"/>
<polygon fill="black" stroke="black" points="482.51,-183.5 492.51,-180 482.51,-176.5 482.51,-183.5"/>
</g>
</g>
</svg>
