<?xml version="1.0" encoding="UTF-8" standalone="no"?>
<!DOCTYPE svg PUBLIC "-//W3C//DTD SVG 1.1//EN"
 "http://www.w3.org/Graphics/SVG/1.1/DTD/svg11.dtd">
<!-- Generated by graphviz version 2.47.0 (20210316.0004)
 -->
<!-- Title: dependencies Pages: 1 -->
<svg width="788pt" height="284pt"
 viewBox="0.00 0.00 788.00 284.00" xmlns="http://www.w3.org/2000/svg" xmlns:xlink="http://www.w3.org/1999/xlink">
<g id="graph0" class="graph" transform="scale(1 1) rotate(0) translate(4 280)">
<title>dependencies</title>
<polygon fill="white" stroke="transparent" points="-4,4 -4,-280 784,-280 784,4 -4,4"/>
<text text-anchor="start" x="369.01" y="-42.4" font-family="Times-12" font-weight="bold" font-size="14.00">Legend</text>
<polygon fill="#ffffb3" stroke="transparent" points="156,-10 156,-30 176,-30 176,-10 156,-10"/>
<text text-anchor="start" x="179.63" y="-15.4" font-family="Times-12" font-size="14.00"> &#160;Declarations</text>
<polygon fill="#8dd3c7" stroke="transparent" points="269,-10 269,-30 289,-30 289,-10 269,-10"/>
<text text-anchor="start" x="292.73" y="-15.4" font-family="Times-12" font-size="14.00"> &#160;Module</text>
<polygon fill="#80b1d3" stroke="transparent" points="355,-10 355,-30 375,-30 375,-10 355,-10"/>
<text text-anchor="start" x="378.78" y="-15.4" font-family="Times-12" font-size="14.00"> &#160;Bootstrap</text>
<polygon fill="#fdb462" stroke="transparent" points="452,-10 452,-30 472,-30 472,-10 452,-10"/>
<text text-anchor="start" x="475.67" y="-15.4" font-family="Times-12" font-size="14.00"> &#160;Providers</text>
<polygon fill="#fb8072" stroke="transparent" points="548,-10 548,-30 568,-30 568,-10 548,-10"/>
<text text-anchor="start" x="571.73" y="-15.4" font-family="Times-12" font-size="14.00"> &#160;Exports</text>
<g id="clust1" class="cluster">
<title>cluster_SnotifyModule</title>
<polygon fill="none" stroke="black" stroke-dasharray="1,5" points="8,-70 8,-268 772,-268 772,-70 8,-70"/>
</g>
<g id="clust2" class="cluster">
<title>cluster_SnotifyModule_declarations</title>
<polygon fill="none" stroke="black" points="16,-78 16,-130 764,-130 764,-78 16,-78"/>
</g>
<g id="clust10" class="cluster">
<title>cluster_SnotifyModule_exports</title>
<polygon fill="none" stroke="black" points="211,-208 211,-260 557,-260 557,-208 211,-208"/>
</g>
<!-- ButtonsComponent -->
<g id="node1" class="node">
<title>ButtonsComponent</title>
<polygon fill="#ffffb3" stroke="black" points="756.39,-122 631.61,-122 631.61,-86 756.39,-86 756.39,-122"/>
<text text-anchor="middle" x="694" y="-99.8" font-family="Times,serif" font-size="14.00">ButtonsComponent</text>
</g>
<!-- SnotifyModule -->
<g id="node7" class="node">
<title>SnotifyModule</title>
<polygon fill="#8dd3c7" stroke="black" points="444.27,-187 441.27,-191 420.27,-191 417.27,-187 343.73,-187 343.73,-151 444.27,-151 444.27,-187"/>
<text text-anchor="middle" x="394" y="-164.8" font-family="Times,serif" font-size="14.00">SnotifyModule</text>
</g>
<!-- ButtonsComponent&#45;&gt;SnotifyModule -->
<g id="edge1" class="edge">
<title>ButtonsComponent&#45;&gt;SnotifyModule</title>
<path fill="none" stroke="black" d="M694,-122.11C694,-141.34 694,-169 694,-169 694,-169 454.55,-169 454.55,-169"/>
<polygon fill="black" stroke="black" points="454.55,-165.5 444.55,-169 454.55,-172.5 454.55,-165.5"/>
</g>
<!-- KeysPipe -->
<g id="node2" class="node">
<title>KeysPipe</title>
<polygon fill="#ffffb3" stroke="black" points="613.65,-122 544.35,-122 544.35,-86 613.65,-86 613.65,-122"/>
<text text-anchor="middle" x="579" y="-99.8" font-family="Times,serif" font-size="14.00">KeysPipe</text>
</g>
<!-- KeysPipe&#45;&gt;SnotifyModule -->
<g id="edge2" class="edge">
<title>KeysPipe&#45;&gt;SnotifyModule</title>
<path fill="none" stroke="black" d="M581.2,-122.03C581.2,-138.4 581.2,-160 581.2,-160 581.2,-160 454.66,-160 454.66,-160"/>
<polygon fill="black" stroke="black" points="454.66,-156.5 444.66,-160 454.66,-163.5 454.66,-156.5"/>
</g>
<!-- PromptComponent -->
<g id="node3" class="node">
<title>PromptComponent</title>
<polygon fill="#ffffb3" stroke="black" points="526.06,-122 403.94,-122 403.94,-86 526.06,-86 526.06,-122"/>
<text text-anchor="middle" x="465" y="-99.8" font-family="Times,serif" font-size="14.00">PromptComponent</text>
</g>
<!-- PromptComponent&#45;&gt;SnotifyModule -->
<g id="edge3" class="edge">
<title>PromptComponent&#45;&gt;SnotifyModule</title>
<path fill="none" stroke="black" d="M424.05,-122.11C424.05,-122.11 424.05,-140.99 424.05,-140.99"/>
<polygon fill="black" stroke="black" points="420.55,-140.99 424.05,-150.99 427.55,-140.99 420.55,-140.99"/>
</g>
<!-- SnotifyComponent -->
<g id="node4" class="node">
<title>SnotifyComponent</title>
<polygon fill="#ffffb3" stroke="black" points="385.06,-122 262.94,-122 262.94,-86 385.06,-86 385.06,-122"/>
<text text-anchor="middle" x="324" y="-99.8" font-family="Times,serif" font-size="14.00">SnotifyComponent</text>
</g>
<!-- SnotifyComponent&#45;&gt;SnotifyModule -->
<g id="edge4" class="edge">
<title>SnotifyComponent&#45;&gt;SnotifyModule</title>
<path fill="none" stroke="black" d="M364.45,-122.11C364.45,-122.11 364.45,-140.99 364.45,-140.99"/>
<polygon fill="black" stroke="black" points="360.95,-140.99 364.45,-150.99 367.95,-140.99 360.95,-140.99"/>
</g>
<!-- ToastComponent -->
<g id="node5" class="node">
<title>ToastComponent</title>
<polygon fill="#ffffb3" stroke="black" points="245.44,-122 132.56,-122 132.56,-86 245.44,-86 245.44,-122"/>
<text text-anchor="middle" x="189" y="-99.8" font-family="Times,serif" font-size="14.00">ToastComponent</text>
</g>
<!-- ToastComponent&#45;&gt;SnotifyModule -->
<g id="edge5" class="edge">
<title>ToastComponent&#45;&gt;SnotifyModule</title>
<path fill="none" stroke="black" d="M232.07,-122.03C232.07,-138.4 232.07,-160 232.07,-160 232.07,-160 333.65,-160 333.65,-160"/>
<polygon fill="black" stroke="black" points="333.65,-163.5 343.65,-160 333.65,-156.5 333.65,-163.5"/>
</g>
<!-- TruncatePipe -->
<g id="node6" class="node">
<title>TruncatePipe</title>
<polygon fill="#ffffb3" stroke="black" points="114.14,-122 23.86,-122 23.86,-86 114.14,-86 114.14,-122"/>
<text text-anchor="middle" x="69" y="-99.8" font-family="Times,serif" font-size="14.00">TruncatePipe</text>
</g>
<!-- TruncatePipe&#45;&gt;SnotifyModule -->
<g id="edge6" class="edge">
<title>TruncatePipe&#45;&gt;SnotifyModule</title>
<path fill="none" stroke="black" d="M69,-122.11C69,-141.34 69,-169 69,-169 69,-169 333.58,-169 333.58,-169"/>
<polygon fill="black" stroke="black" points="333.58,-172.5 343.58,-169 333.58,-165.5 333.58,-172.5"/>
</g>
<!-- KeysPipe  -->
<g id="node8" class="node">
<title>KeysPipe </title>
<polygon fill="#fb8072" stroke="black" points="548.65,-252 475.35,-252 475.35,-216 548.65,-216 548.65,-252"/>
<text text-anchor="middle" x="512" y="-229.8" font-family="Times,serif" font-size="14.00">KeysPipe </text>
</g>
<!-- SnotifyModule&#45;&gt;KeysPipe  -->
<g id="edge7" class="edge">
<title>SnotifyModule&#45;&gt;KeysPipe </title>
<path fill="none" stroke="black" stroke-dasharray="5,2" d="M444.3,-178C472.01,-178 500.85,-178 500.85,-178 500.85,-178 500.85,-205.97 500.85,-205.97"/>
<polygon fill="black" stroke="black" points="497.35,-205.97 500.85,-215.97 504.35,-205.97 497.35,-205.97"/>
</g>
<!-- SnotifyComponent  -->
<g id="node9" class="node">
<title>SnotifyComponent </title>
<polygon fill="#fb8072" stroke="black" points="457.06,-252 330.94,-252 330.94,-216 457.06,-216 457.06,-252"/>
<text text-anchor="middle" x="394" y="-229.8" font-family="Times,serif" font-size="14.00">SnotifyComponent </text>
</g>
<!-- SnotifyModule&#45;&gt;SnotifyComponent  -->
<g id="edge8" class="edge">
<title>SnotifyModule&#45;&gt;SnotifyComponent </title>
<path fill="none" stroke="black" stroke-dasharray="5,2" d="M394,-187.11C394,-187.11 394,-205.99 394,-205.99"/>
<polygon fill="black" stroke="black" points="390.5,-205.99 394,-215.99 397.5,-205.99 390.5,-205.99"/>
</g>
<!-- TruncatePipe  -->
<g id="node10" class="node">
<title>TruncatePipe </title>
<polygon fill="#fb8072" stroke="black" points="313.14,-252 218.86,-252 218.86,-216 313.14,-216 313.14,-252"/>
<text text-anchor="middle" x="266" y="-229.8" font-family="Times,serif" font-size="14.00">TruncatePipe </text>
</g>
<!-- SnotifyModule&#45;&gt;TruncatePipe  -->
<g id="edge9" class="edge">
<title>SnotifyModule&#45;&gt;TruncatePipe </title>
<path fill="none" stroke="black" stroke-dasharray="5,2" d="M343.43,-178C316.1,-178 287.89,-178 287.89,-178 287.89,-178 287.89,-205.97 287.89,-205.97"/>
<polygon fill="black" stroke="black" points="284.39,-205.97 287.89,-215.97 291.39,-205.97 284.39,-205.97"/>
</g>
</g>
</svg>
